# xmcd
#
# Track frame offsets: 
#        150
#        17342
#        36263
#        53472
#        68918
#        85630
#        102732
#        125504
#        137636
#        155985
#        174573
#
# Disc length: 2666 seconds
#
# Revision: 0
# Processed by: cddbd v1.5.2PL0 Copyright (c) Steve Scherf et al.
# Submitted via: ExactAudioCopyFreeDBPlugin 1.0
#
DISCID=8f0a680b
DTITLE=Ralph de Jongh - More than Words
DYEAR=2011
DGENRE=Blues
TTITLE0=Ralph de Jongh and Grazy Hearts - More than Words
TTITLE1=Ralph de Jongh and Grazy Hearts - Everybody
TTITLE2=Ralph de Jongh and Grazy Hearts - Sweet in here
TTITLE3=Ralph de Jongh and Grazy Hearts - Where did you stay last nigh
TTITLE3=t
TTITLE4=Ralph de Jongh and Grazy Hearts - Dandy Lines
TTITLE5=Ralph de Jongh and Grazy Hearts - Worrywise
TTITLE6=Ralph de Jongh and Grazy Hearts - Tears of Rhyme
TTITLE7=Ralph de Jongh and Grazy Hearts - Smiling Faces
TTITLE8=Ralph de Jongh and Grazy Hearts - Free
TTITLE9=Ralph de Jongh and Grazy Hearts - Build me up
TTITLE10=Ralph de Jongh and Grazy Hearts - Wonderin
EXTD=
EXTT0=
EXTT1=
EXTT2=
EXTT3=
EXTT4=
EXTT5=
EXTT6=
EXTT7=
EXTT8=
EXTT9=
EXTT10=
PLAYORDER=
